<!DOCTYPE svg PUBLIC "-//W3C//DTD SVG 1.1//EN" "http://www.w3.org/Graphics/SVG/1.1/DTD/svg11.dtd">
<!-- Uploaded to: SVG Repo, www.svgrepo.com, Transformed by: SVG Repo Mixer Tools -->
<svg fill="#008000" width="64px" height="64px" viewBox="-1.7 0 20.4 20.4" xmlns="http://www.w3.org/2000/svg" class="cf-icon-svg">
<g id="SVGRepo_bgCarrier" stroke-width="0"/>
<g id="SVGRepo_tracerCarrier" stroke-linecap="round" stroke-linejoin="round"/>
<g id="SVGRepo_iconCarrier">
<path d="M16.417 10.283A7.917 7.917 0 1 1 8.5 2.366a7.916 7.916 0 0 1 7.917 7.917zm-4.105-4.498a.791.791 0 0 0-1.082.29l-3.828 6.63-1.733-2.08a.791.791 0 1 0-1.216 1.014l2.459 2.952a.792.792 0 0 0 .608.285.83.83 0 0 0 .068-.003.791.791 0 0 0 .618-.393L12.6 6.866a.791.791 0 0 0-.29-1.081z"/>
</g>
</svg>